<svg xmlns="http://www.w3.org/2000/svg" id="be2f47f1-4aed-4c55-aec1-ca359ae15931" data-name="Layer 1" width="17.8955" height="17.9351" viewBox="0 0 17.8955 17.9351"><path d="M17.7679.2166a.68.68,0,0,0-.4533-.1841.6939.6939,0,0,0-.4675.1841L8.9988,8.0649,1.1505.2166A.6941.6941,0,0,0,.6829.0325.6521.6521,0,0,0,.23.2166.666.666,0,0,0,.0312.6841.6378.6378,0,0,0,.23,1.1516L8.0638,9,.23,16.7916a.61.61,0,0,0-.1984.4534.6381.6381,0,0,0,.1984.4675.6237.6237,0,0,0,.4675.1983.4681.4681,0,0,0,.2408,0,.4391.4391,0,0,0,.2126-.1417L8.9988,9.9208l7.8483,7.8483a.6374.6374,0,0,0,.4675.1984.6089.6089,0,0,0,.4533-.1984.4384.4384,0,0,0,.1417-.2125.4818.4818,0,0,0,0-.255.4681.4681,0,0,0,0-.2408.4384.4384,0,0,0-.1417-.2125L9.92,9l7.8483-7.8484A.4379.4379,0,0,0,17.91.9391a.5521.5521,0,0,0,0-.255.4681.4681,0,0,0,0-.2408A.5533.5533,0,0,0,17.7679.2166Z" transform="translate(-0.0312 -0.0325)"></path></svg>